<svg width="48" height="48" viewBox="0 0 48 48" fill="none" xmlns="http://www.w3.org/2000/svg">
<g clip-path="url(#clip0_226_682)">
<path d="M32 18.0001C30.18 18.0001 28.46 18.3601 26.86 19.0001L25.46 12.9001L33.24 5.12005C34.4 4.00005 34.4 2.06005 33.24 0.88005C32.08 -0.299951 30.16 -0.291951 29 0.88005L21.22 8.66005L2.82 4.42005L0 7.24005L14.86 15.0001L7.08 22.8001L2.12 22.1001L0 24.2201L6.36 27.7401L9.9 34.1201L12 32.0001L11.32 27.0001L19.1 19.2601L21.14 23.1801C19.47 25.2323 18.4162 27.7161 18.101 30.3431C17.7857 32.9701 18.2219 35.6327 19.3589 38.0218C20.4958 40.4109 22.287 42.4287 24.5245 43.8408C26.762 45.253 29.3541 46.0017 32 46.0001C39.74 46.0001 46 39.7401 46 32.0001C46 24.2601 39.74 18.0001 32 18.0001ZM32 42.0001C26.48 42.0001 22 37.5201 22 32.0001C22 26.4801 26.48 22.0001 32 22.0001C37.52 22.0001 42 26.4801 42 32.0001C42 37.5201 37.52 42.0001 32 42.0001ZM33 32.5001V24.0001H30V34.0001L37.22 38.3201L38.72 35.8801L33 32.5001Z" fill="#A1A1A1"/>
</g>
<defs>
<clipPath id="clip0_226_682">
<rect width="48" height="48" fill="white"/>
</clipPath>
</defs>
</svg>
