<svg width="50" height="50" viewBox="0 0 50 50" fill="none" xmlns="http://www.w3.org/2000/svg">
<path d="M48.4377 42.1875C48.4377 42.6019 48.2731 42.9993 47.9801 43.2924C47.687 43.5854 47.2896 43.75 46.8752 43.75H18.7502C18.3358 43.75 17.9384 43.5854 17.6454 43.2924C17.3523 42.9993 17.1877 42.6019 17.1877 42.1875C17.1877 41.7731 17.3523 41.3757 17.6454 41.0826C17.9384 40.7896 18.3358 40.625 18.7502 40.625H46.8752C47.2896 40.625 47.687 40.7896 47.9801 41.0826C48.2731 41.3757 48.4377 41.7731 48.4377 42.1875ZM43.7502 36.7188C43.919 36.7174 44.0831 36.6627 44.219 36.5625C44.316 36.4897 44.3947 36.3954 44.449 36.2869C44.5032 36.1784 44.5315 36.0588 44.5315 35.9375V28.9648C44.5284 27.4275 44.0229 25.9333 43.0921 24.7098C42.1612 23.4863 40.856 22.6006 39.3752 22.1875L30.2151 19.6484L24.1213 8.98438C24.0221 8.82187 23.8706 8.6979 23.6916 8.63281L21.0549 7.75391C20.7024 7.63663 20.3268 7.60557 19.9598 7.66334C19.5928 7.72111 19.245 7.86603 18.9455 8.08594C18.6398 8.29739 18.3909 8.5808 18.2205 8.91119C18.0502 9.24159 17.9638 9.6088 17.969 9.98047V16.1328L13.0471 14.5898L10.0588 9.00391C9.96571 8.83188 9.81287 8.69988 9.62912 8.63281L6.9924 7.75391C6.63986 7.63663 6.26434 7.60557 5.89733 7.66334C5.53031 7.72111 5.18249 7.86603 4.88303 8.08594C4.57733 8.29739 4.32835 8.5808 4.15805 8.91119C3.98774 9.24159 3.90134 9.6088 3.90647 9.98047V20.2539C3.90835 21.7887 4.41099 23.281 5.33806 24.5042C6.26514 25.7273 7.56602 26.6146 9.04318 27.0312L43.5354 36.6992L43.7502 36.7188Z" fill="#009589"/>
</svg>
