<svg width="48" height="48" viewBox="0 0 48 48" fill="none" xmlns="http://www.w3.org/2000/svg">
<path d="M23.9999 19.2C28.0799 19.2 31.3439 15.96 31.3439 12C31.3439 8.04 28.0799 4.8 23.9999 4.8C19.9199 4.8 16.6559 8.04 16.6559 12C16.6559 15.96 19.9199 19.2 23.9999 19.2ZM23.9999 24C17.2799 24 11.8559 18.624 11.8559 12C11.8559 5.376 17.2799 0 23.9999 0C30.7199 0 36.1439 5.376 36.1439 12C36.1439 18.624 30.7199 24 23.9999 24ZM7.1999 43.2H40.7999V40.008C40.7999 35.808 35.2559 31.464 23.9999 31.464C12.7439 31.464 7.1999 35.808 7.1999 40.008V43.2ZM23.9999 26.664C39.9839 26.664 45.5999 34.656 45.5999 40.008V48H2.3999V40.008C2.3999 34.656 8.0159 26.664 23.9999 26.664Z" fill="#7234C3"/>
</svg>
