<svg width="68" height="68" viewBox="0 0 68 68" fill="none" xmlns="http://www.w3.org/2000/svg">
<path d="M9.2396 30.2721C8.98472 30.431 8.77364 30.6511 8.62559 30.9124C8.47753 31.1737 8.39721 31.4679 8.39194 31.7681C8.38666 32.0684 8.45661 32.3652 8.5954 32.6316C8.73419 32.8979 8.93741 33.1253 9.18655 33.293L19.3839 40.1663C20.0321 40.6031 20.8048 40.8171 21.5853 40.776C22.3658 40.7349 23.1118 40.4408 23.7104 39.9383L34.9529 30.5048C35.3186 30.1979 35.7912 30.0489 36.2668 30.0905C36.7424 30.1321 37.1819 30.3609 37.4888 30.7266C37.7957 31.0923 37.9447 31.565 37.9031 32.0405C37.8615 32.5161 37.6326 32.9557 37.2669 33.2625L26.0245 42.6961C25.4256 43.1984 25.0065 43.8819 24.8305 44.6435C24.6545 45.405 24.7311 46.2031 25.0487 46.9173L30.0484 58.1551C30.1702 58.4296 30.3589 58.6692 30.5971 58.8521C30.8352 59.0351 31.1154 59.1555 31.412 59.2024C31.7087 59.2494 32.0123 59.2214 32.2954 59.1209C32.5784 59.0205 32.8318 58.8508 33.0325 58.6274C42.2569 48.3526 48.2041 35.558 50.1124 21.8824C50.1476 21.6325 50.1298 21.378 50.0603 21.1355C49.9908 20.8929 49.8711 20.6677 49.7089 20.4744C49.5467 20.2811 49.3456 20.124 49.1188 20.0134C48.892 19.9028 48.6445 19.8412 48.3923 19.8324C34.5931 19.3371 20.9602 22.9722 9.2396 30.2721Z" fill="#777777"/>
</svg>
